<svg width="25" height="28" viewBox="0 0 25 28" fill="none" xmlns="http://www.w3.org/2000/svg">
<path d="M3.125 3.5C3.125 2.53203 2.42676 1.75 1.5625 1.75C0.698242 1.75 0 2.53203 0 3.5V21.875C0 24.2922 1.74805 26.25 3.90625 26.25H23.4375C24.3018 26.25 25 25.468 25 24.5C25 23.532 24.3018 22.75 23.4375 22.75H3.90625C3.47656 22.75 3.125 22.3563 3.125 21.875V3.5ZM22.9785 8.23594C23.5889 7.55234 23.5889 6.44219 22.9785 5.75859C22.3682 5.075 21.377 5.075 20.7666 5.75859L15.625 11.5227L12.8223 8.38359C12.2119 7.7 11.2207 7.7 10.6104 8.38359L5.1416 14.5086C4.53125 15.1922 4.53125 16.3023 5.1416 16.9859C5.75195 17.6695 6.74316 17.6695 7.35352 16.9859L11.7188 12.1023L14.5215 15.2414C15.1318 15.925 16.123 15.925 16.7334 15.2414L22.9834 8.24141L22.9785 8.23594Z" fill="white"/>
</svg>
