<?xml version="1.0" encoding="UTF-8"?>
<svg id="Layer_6" data-name="Layer 6" xmlns="http://www.w3.org/2000/svg" xmlns:xlink="http://www.w3.org/1999/xlink" viewBox="0 0 578.74 204.74">
  <defs>
    <linearGradient id="linear-gradient" x1="7.67" y1="62.14" x2="266.77" y2="62.14" gradientUnits="userSpaceOnUse">
      <stop offset="0" stop-color="#4ca1a6"/>
      <stop offset="1" stop-color="#2c5e77"/>
    </linearGradient>
    <linearGradient id="linear-gradient-2" x1="7.82" y1="135.03" x2="386.74" y2="135.03" xlink:href="#linear-gradient"/>
  </defs>
  <path d="M7.82,31.5l149.44.91c12.33.08,24.19,4.7,33.32,12.98l59.39,53.87" style="fill: none; stroke: url(#linear-gradient); stroke-miterlimit: 10; stroke-width: 50px;"/>
  <path d="M7.82,170.81h151.44c13.75,0,26.92-5.58,36.48-15.47l38.9-40.23c9.8-10.13,23.28-15.85,37.38-15.85h114.72" style="fill: none; stroke: url(#linear-gradient-2); stroke-miterlimit: 10; stroke-width: 50px;"/>
  <path d="M359.35,29.45l67.34,67.34c1.81,1.81,1.81,4.76,0,6.57l-65.75,65.75c-2.93,2.93-7.93.85-7.93-3.29V32.08c0-3.31,4-4.97,6.34-2.63Z" style="fill: #2c5e77;"/>
  <text transform="translate(32.41 41.69)" style="fill: #fff; font-family: Montserrat-Bold, Montserrat; font-size: 30px; font-weight: 700;"><tspan x="0" y="0">sJIA</tspan></text>
  <text transform="translate(452.7 138.78)" style="fill: #2c5e77; font-family: Montserrat-Bold, Montserrat; font-size: 30px; font-weight: 700;"><tspan x="0" y="0">Still</tspan><tspan x="59.28" y="0" style="letter-spacing: -.02em;">’</tspan><tspan x="66.6" y="0">s</tspan><tspan x="0" y="36">dis</tspan><tspan x="45.72" y="36" style="letter-spacing: -.02em;">e</tspan><tspan x="64.2" y="36">ase</tspan></text>
  <text transform="translate(32.41 180.83)" style="fill: #fff; font-family: Montserrat-Bold, Montserrat; font-size: 30px; font-weight: 700;"><tspan x="0" y="0" style="letter-spacing: 0em;">A</tspan><tspan x="22.68" y="0">OSD</tspan></text>
  <path d="M468.67,27.26c0-4.32,3.5-7.83,7.83-7.83s7.83,3.5,7.83,7.83-3.5,7.83-7.83,7.83-7.83-3.5-7.83-7.83ZM475.19,76.83v20.87c0,2.89-2.33,5.22-5.22,5.22s-5.22-2.33-5.22-5.22v-36.38l-4.66,7.76c-1.48,2.46-4.7,3.26-7.16,1.78-2.46-1.48-3.26-4.7-1.78-7.16l9.51-15.82c2.84-4.71,7.92-7.6,13.42-7.6h4.84c5.5,0,10.58,2.89,13.42,7.6l9.51,15.82c1.48,2.46.68,5.67-1.78,7.16s-5.67.68-7.16-1.78l-4.68-7.76v36.38c0,2.89-2.33,5.22-5.22,5.22s-5.22-2.33-5.22-5.22v-20.87h-2.61Z" style="fill: #2c5e77;"/>
</svg>