<?xml version="1.0" encoding="UTF-8"?>
<svg id="Layer_4" data-name="Layer 4" xmlns="http://www.w3.org/2000/svg" viewBox="0 0 1030.02 329.79">
  <g>
    <path d="M867.6,110.54v-36.16c0-9.4,7.62-17.03,17.03-17.03h40.92" style="fill: none; stroke: #9d9c98; stroke-miterlimit: 10; stroke-width: 3px;"/>
    <polygon points="939.1 57.35 925.55 64.38 925.55 50.82 939.1 57.35" style="fill: #9d9c98; stroke: #9d9c98; stroke-miterlimit: 10; stroke-width: 3px;"/>
  </g>
  <g>
    <path d="M753.89,57.35h0c15.9,0,28.79,12.89,28.79,28.79v57.83c0,10.92,8.85,19.76,19.76,19.76h0" style="fill: none; stroke: #9d9c98; stroke-miterlimit: 10; stroke-width: 3px;"/>
    <polygon points="817.55 163.48 804 170.51 804 156.96 817.55 163.48" style="fill: #9d9c98; stroke: #9d9c98; stroke-miterlimit: 10; stroke-width: 3px;"/>
  </g>
  <g>
    <path d="M869.6,212.03v43.29c0,8.17-6.62,14.79-14.79,14.79h-91.33" style="fill: none; stroke: #9d9c98; stroke-miterlimit: 10; stroke-width: 3px;"/>
    <polygon points="756.7 269.36 770.26 262.34 770.26 275.89 756.7 269.36" style="fill: #9d9c98; stroke: #9d9c98; stroke-miterlimit: 10; stroke-width: 3px;"/>
  </g>
  <g>
    <path d="M537.43,212.03l.21,49.81h0c-.23,4.5,3.36,8.28,7.87,8.28h39.15" style="fill: none; stroke: #9d9c98; stroke-miterlimit: 10; stroke-width: 3px;"/>
    <polygon points="591.43 269.86 577.88 276.89 577.88 263.34 591.43 269.86" style="fill: #9d9c98; stroke: #9d9c98; stroke-miterlimit: 10; stroke-width: 3px;"/>
  </g>
  <g>
    <path d="M537.64,112.38v-45.47h0c-.23-5.21,3.93-9.56,9.15-9.56h37.87" style="fill: none; stroke: #9d9c98; stroke-miterlimit: 10; stroke-width: 3px;"/>
    <polygon points="591.43 57.1 577.88 64.13 577.88 50.57 591.43 57.1" style="fill: #9d9c98; stroke: #9d9c98; stroke-miterlimit: 10; stroke-width: 3px;"/>
  </g>
  <g>
    <path d="M417.88,57.35h0c14.66,0,26.54,11.88,26.54,26.54v163.92c0,12.32-9.99,22.31-22.31,22.31h0" style="fill: none; stroke: #9d9c98; stroke-miterlimit: 10; stroke-width: 3px;"/>
    <line x1="472.38" y1="163.73" x2="444.42" y2="163.73" style="fill: none; stroke: #9d9c98; stroke-miterlimit: 10; stroke-width: 3px;"/>
    <polygon points="485.93 163.48 472.38 170.51 472.38 156.96 485.93 163.48" style="fill: #9d9c98; stroke: #9d9c98; stroke-miterlimit: 10; stroke-width: 3px;"/>
  </g>
  <g>
    <path d="M204.92,212.03l.21,49.81h0c-.23,4.5,3.36,8.28,7.87,8.28h39.15" style="fill: none; stroke: #9d9c98; stroke-miterlimit: 10; stroke-width: 3px;"/>
    <polygon points="261.98 269.86 248.43 276.89 248.43 263.34 261.98 269.86" style="fill: #9d9c98; stroke: #9d9c98; stroke-miterlimit: 10; stroke-width: 3px;"/>
  </g>
  <g>
    <path d="M205.12,112.38v-45.47h0c-.23-5.21,3.93-9.56,9.15-9.56h37.87" style="fill: none; stroke: #9d9c98; stroke-miterlimit: 10; stroke-width: 3px;"/>
    <polygon points="261.98 57.1 248.43 64.13 248.43 50.57 261.98 57.1" style="fill: #9d9c98; stroke: #9d9c98; stroke-miterlimit: 10; stroke-width: 3px;"/>
  </g>
  <g>
    <line x1="105.79" y1="164.42" x2="150.21" y2="164.42" style="fill: #eb9200; stroke: #9d9c98; stroke-miterlimit: 10; stroke-width: 3px;"/>
    <polygon points="150.21 164.17 136.66 171.19 136.66 157.64 150.21 164.17" style="fill: #9d9c98; stroke: #9d9c98; stroke-miterlimit: 10; stroke-width: 3px;"/>
  </g>
  <g>
    <rect x="7.66" y="111.03" width="101" height="101" rx="10" ry="10" style="fill: #2d5e77; stroke: #231f20; stroke-miterlimit: 10;"/>
    <text transform="translate(37.81 148.38)" style="fill: #fff; font-family: Montserrat-Medium, Montserrat; font-size: 13px; font-weight: 500;"><tspan x="0" y="0" style="letter-spacing: 0em;">A</tspan><tspan x="9.45" y="0" style="letter-spacing: 0em;">c</tspan><tspan x="16.96" y="0">ti</tspan><tspan x="25.97" y="0" style="letter-spacing: -.01em;">v</tspan><tspan x="33.05" y="0">e</tspan><tspan x="3.71" y="15.6">Still</tspan><tspan x="28.05" y="15.6" style="letter-spacing: -.02em;">’</tspan><tspan x="30.78" y="15.6">s</tspan><tspan x="-4" y="31.2">dis</tspan><tspan x="15" y="31.2" style="letter-spacing: -.01em;">e</tspan><tspan x="22.76" y="31.2">ase</tspan></text>
  </g>
  <g>
    <rect x="161.1" y="114.21" width="99.11" height="103.74" rx="10" ry="10" style="fill: #939598; opacity: .51;"/>
    <rect x="154.21" y="111.03" width="101" height="101" rx="10" ry="10" style="fill: #9d9c98;"/>
    <text transform="translate(181.21 159.3)" style="fill: #fff; font-family: Montserrat-Medium, Montserrat; font-size: 13px; font-weight: 500;"><tspan x="0" y="0">Dis</tspan><tspan x="20.88" y="0" style="letter-spacing: -.01em;">e</tspan><tspan x="28.64" y="0">ase </tspan><tspan x="1.57" y="15.6" style="letter-spacing: 0em;">a</tspan><tspan x="9.38" y="15.6" style="letter-spacing: 0em;">c</tspan><tspan x="16.89" y="15.6">tivi</tspan><tspan x="36.8" y="15.6" style="letter-spacing: 0em;">t</tspan><tspan x="42.05" y="15.6">y</tspan></text>
  </g>
  <g>
    <ellipse cx="207.25" cy="83.98" rx="41.51" ry="17.1" style="fill: #4ca1a6;"/>
    <text transform="translate(190.65 87.31)" style="fill: #fff; font-family: Montserrat-Medium, Montserrat; font-size: 13px; font-weight: 500;"><tspan x="0" y="0">High</tspan></text>
  </g>
  <g>
    <ellipse cx="205.12" cy="244.74" rx="47.02" ry="17.1" style="fill: #eb9200;"/>
    <text transform="translate(174.86 249.58)" style="fill: #fff; font-family: Montserrat-Medium, Montserrat; font-size: 13px; font-weight: 500;"><tspan x="0" y="0">Mode</tspan><tspan x="37.49" y="0" style="letter-spacing: 0em;">r</tspan><tspan x="42.72" y="0">a</tspan><tspan x="50.49" y="0" style="letter-spacing: -.02em;">t</tspan><tspan x="55.64" y="0">e</tspan></text>
  </g>
  <g>
    <rect x="269.16" y="18.39" width="154.75" height="87.46" rx="10" ry="10" style="fill: #4ca1a6; opacity: .51;"/>
    <rect x="264.56" y="13.62" width="154.75" height="87.46" rx="10" ry="10" style="fill: #4ca1a6;"/>
    <text transform="translate(310.29 50.14)" style="fill: #fff; font-family: Montserrat-Medium, Montserrat; font-size: 13px; font-weight: 500;"><tspan x="0" y="0">I</tspan><tspan x="4.03" y="0" style="letter-spacing: 0em;">L</tspan><tspan x="11.64" y="0" style="letter-spacing: -.02em;">-</tspan><tspan x="16.38" y="0">1 or I</tspan><tspan x="45.8" y="0" style="letter-spacing: 0em;">L</tspan><tspan x="53.4" y="0" style="letter-spacing: 0em;">-</tspan><tspan x="58.47" y="0">6</tspan><tspan x="-.38" y="15.6">inhibi</tspan><tspan x="37.08" y="15.6" style="letter-spacing: -.02em;">t</tspan><tspan x="42.22" y="15.6">or +</tspan><tspan x="-10.91" y="31.2">high dose GC</tspan></text>
  </g>
  <g>
    <rect x="272.55" y="229.92" width="154.75" height="87.46" rx="10" ry="10" style="fill: #fbb040; opacity: .51;"/>
    <rect x="264.56" y="225.38" width="158.98" height="87.46" rx="10" ry="10" style="fill: #eb9200;"/>
    <text transform="translate(310.54 251.4)" style="fill: #fff; font-size: 13px;"><tspan x="0" y="0" style="font-family: Montserrat-Bold, Montserrat; font-weight: 700;">IL</tspan><tspan x="12.12" y="0" style="font-family: Montserrat-Bold, Montserrat; font-weight: 700; letter-spacing: -.02em;">-</tspan><tspan x="16.86" y="0" style="font-family: Montserrat-Bold, Montserrat; font-weight: 700;">1</tspan><tspan x="21.96" y="0" xml:space="preserve" style="font-family: Montserrat-Medium, Montserrat; font-weight: 500;"> or </tspan><tspan x="42.54" y="0" style="font-family: Montserrat-Bold, Montserrat; font-weight: 700;">IL</tspan><tspan x="54.65" y="0" style="font-family: Montserrat-Bold, Montserrat; font-weight: 700; letter-spacing: 0em;">-</tspan><tspan x="59.72" y="0" style="font-family: Montserrat-Bold, Montserrat; font-weight: 700;">6</tspan><tspan style="font-family: Montserrat-Medium, Montserrat; font-weight: 500;"><tspan x="-3.96" y="15.6">inhibi</tspan><tspan x="33.49" y="15.6" style="letter-spacing: -.02em;">t</tspan><tspan x="38.64" y="15.6">or +</tspan><tspan x="63.29" y="15.6" style="letter-spacing: -.07em;">/</tspan><tspan x="66.98" y="15.6">-</tspan></tspan><tspan style="font-family: Montserrat-Medium, Montserrat; font-weight: 500;"><tspan x="-22.79" y="31.2">l</tspan><tspan x="-19.16" y="31.2" style="letter-spacing: -.01em;">o</tspan><tspan x="-11.1" y="31.2" style="letter-spacing: -.03em;">w</tspan><tspan x=".18" y="31.2" style="letter-spacing: 0em;">/</tspan><tspan x="4.86" y="31.2">in</tspan><tspan x="17.34" y="31.2" style="letter-spacing: -.02em;">t</tspan><tspan x="22.49" y="31.2">e</tspan><tspan x="30.45" y="31.2" style="letter-spacing: 0em;">r</tspan><tspan x="35.68" y="31.2" style="letter-spacing: 0em;">m</tspan><tspan x="49.46" y="31.2">edia</tspan><tspan x="77.69" y="31.2" style="letter-spacing: -.02em;">t</tspan><tspan x="82.83" y="31.2">e</tspan></tspan><tspan x="6.68" y="46.8" style="font-family: Montserrat-Medium, Montserrat; font-weight: 500;">dose </tspan><tspan x="41.77" y="46.8" style="font-family: Montserrat-Bold, Montserrat; font-weight: 700;">GC</tspan></text>
  </g>
  <g>
    <rect x="495.8" y="114.21" width="99.11" height="103.74" rx="10" ry="10" style="fill: #939598; opacity: .51;"/>
    <rect x="488.75" y="111.03" width="101" height="101" rx="10" ry="10" style="fill: #9d9c98;"/>
    <text transform="translate(508.01 144.85)" style="fill: #fff; font-family: Montserrat-Medium, Montserrat; font-size: 13px; font-weight: 500;"><tspan x="0" y="0">CID* with</tspan><tspan x="1.98" y="15.6">l</tspan><tspan x="5.6" y="15.6" style="letter-spacing: -.01em;">o</tspan><tspan x="13.66" y="15.6">w dose </tspan><tspan x="13.16" y="31.2">GC at </tspan><tspan x=".14" y="46.8">Month 3?</tspan></text>
  </g>
  <g>
    <rect x="603.88" y="18.39" width="154.75" height="87.46" rx="10" ry="10" style="fill: #4ca1a6; opacity: .51;"/>
    <rect x="594.91" y="13.62" width="158.98" height="87.46" rx="10" ry="10" style="fill: #4ca1a6;"/>
    <text transform="translate(625.83 48.59)" style="fill: #fff; font-size: 13px;"><tspan x="0" y="0" style="font-family: Montserrat-Bold, Montserrat; font-weight: 700;">Maintain</tspan><tspan x="59.9" y="0" xml:space="preserve" style="font-family: Montserrat-Medium, Montserrat; font-weight: 500;"> I</tspan><tspan x="67.43" y="0" style="font-family: Montserrat-Medium, Montserrat; font-weight: 500; letter-spacing: 0em;">L</tspan><tspan x="75.04" y="0" style="font-family: Montserrat-Medium, Montserrat; font-weight: 500; letter-spacing: -.02em;">-</tspan><tspan x="79.78" y="0" style="font-family: Montserrat-Medium, Montserrat; font-weight: 500;">1 or </tspan><tspan style="font-family: Montserrat-Medium, Montserrat; font-weight: 500;"><tspan x="-5.88" y="15.6">I</tspan><tspan x="-1.85" y="15.6" style="letter-spacing: 0em;">L</tspan><tspan x="5.75" y="15.6" style="letter-spacing: 0em;">-</tspan><tspan x="10.82" y="15.6">6 inhibi</tspan><tspan x="59.79" y="15.6" style="letter-spacing: -.02em;">t</tspan><tspan x="64.94" y="15.6">or a</tspan><tspan x="89.8" y="15.6" style="letter-spacing: 0em;">n</tspan><tspan x="98.69" y="15.6">d </tspan></tspan><tspan style="font-family: Montserrat-Medium, Montserrat; font-weight: 500;"><tspan x="21.72" y="31.2">taper GC</tspan></tspan></text>
  </g>
  <text transform="translate(958.3 63.86)" style="fill: #231f20; font-family: Montserrat-Medium, Montserrat; font-size: 22px; font-weight: 500;"><tspan x="0" y="0" style="letter-spacing: -.02em;">P</tspan><tspan x="15.55" y="0">a</tspan><tspan x="28.71" y="0" style="letter-spacing: .02em;">r</tspan><tspan x="38.06" y="0">t II</tspan></text>
  <g>
    <rect x="604.27" y="229.92" width="154.75" height="87.46" rx="10" ry="10" style="fill: #fbb040; opacity: .51;"/>
    <rect x="594.91" y="225.38" width="158.98" height="87.46" rx="10" ry="10" style="fill: #eb9200;"/>
    <text transform="translate(617.97 261.26)" style="fill: #fff; font-size: 13px;"><tspan x="0" y="0" style="font-family: Montserrat-Bold, Montserrat; font-weight: 700;">Rota</tspan><tspan x="31.75" y="0" style="font-family: Montserrat-Bold, Montserrat; font-weight: 700; letter-spacing: -.02em;">t</tspan><tspan x="37.18" y="0" style="font-family: Montserrat-Bold, Montserrat; font-weight: 700;">e</tspan><tspan x="45.38" y="0" xml:space="preserve" style="font-family: Montserrat-Medium, Montserrat; font-weight: 500;"> I</tspan><tspan x="52.91" y="0" style="font-family: Montserrat-Medium, Montserrat; font-weight: 500; letter-spacing: 0em;">L</tspan><tspan x="60.51" y="0" style="font-family: Montserrat-Medium, Montserrat; font-weight: 500; letter-spacing: -.02em;">-</tspan><tspan x="65.26" y="0" style="font-family: Montserrat-Medium, Montserrat; font-weight: 500;">1 or I</tspan><tspan x="94.68" y="0" style="font-family: Montserrat-Medium, Montserrat; font-weight: 500; letter-spacing: 0em;">L</tspan><tspan x="102.28" y="0" style="font-family: Montserrat-Medium, Montserrat; font-weight: 500; letter-spacing: 0em;">-</tspan><tspan x="107.35" y="0" style="font-family: Montserrat-Medium, Montserrat; font-weight: 500;">6</tspan><tspan style="font-family: Montserrat-Medium, Montserrat; font-weight: 500;"><tspan x="15.08" y="15.6">inhibi</tspan><tspan x="52.53" y="15.6" style="letter-spacing: -.02em;">t</tspan><tspan x="57.68" y="15.6">or a</tspan><tspan x="82.54" y="15.6" style="letter-spacing: 0em;">n</tspan><tspan x="91.43" y="15.6">d</tspan></tspan><tspan style="font-family: Montserrat-Medium, Montserrat; font-weight: 500;"><tspan x="28.57" y="31.2">taper GC</tspan></tspan></text>
  </g>
  <g>
    <rect x="826.44" y="114.21" width="99.11" height="103.74" rx="10" ry="10" style="fill: #939598; opacity: .51;"/>
    <rect x="819.1" y="111.03" width="101" height="101" rx="10" ry="10" style="fill: #9d9c98;"/>
    <text transform="translate(846.5 151.49)" style="fill: #fff; font-family: Montserrat-Medium, Montserrat; font-size: 13px; font-weight: 500;"><tspan x="0" y="0">CID* off</tspan><tspan x="7.1" y="15.6">GC at </tspan><tspan x="-6.9" y="31.2" style="letter-spacing: 0em;">m</tspan><tspan x="6.88" y="31.2">onth 6?</tspan></text>
  </g>
  <g>
    <circle cx="867.6" cy="85.84" r="12.42" style="fill: #4ca1a6;"/>
    <text transform="translate(863.4 91.25)" style="fill: #fff; font-family: Montserrat-Medium, Montserrat; font-size: 13px; font-weight: 500;"><tspan x="0" y="0">Y</tspan></text>
  </g>
  <g>
    <circle cx="867.6" cy="242.82" r="12.42" style="fill: #eb9200;"/>
    <text transform="translate(862.33 247.99)" style="fill: #fff; font-family: Montserrat-Medium, Montserrat; font-size: 13px; font-weight: 500;"><tspan x="0" y="0">N</tspan></text>
  </g>
  <g>
    <circle cx="537.22" cy="85.84" r="12.42" style="fill: #4ca1a6;"/>
    <text transform="translate(533.02 91.25)" style="fill: #fff; font-family: Montserrat-Medium, Montserrat; font-size: 13px; font-weight: 500;"><tspan x="0" y="0">Y</tspan></text>
  </g>
  <g>
    <circle cx="537.22" cy="242.82" r="12.42" style="fill: #eb9200;"/>
    <text transform="translate(531.94 247.99)" style="fill: #fff; font-family: Montserrat-Medium, Montserrat; font-size: 13px; font-weight: 500;"><tspan x="0" y="0">N</tspan></text>
  </g>
</svg>