<?xml version="1.0" encoding="UTF-8"?>
<svg xmlns="http://www.w3.org/2000/svg" viewBox="0 0 971.49 364.8">
  <g id="Layer_3" data-name="Layer 3">
    <g>
      <line x1="193.15" y1="154.75" x2="237.57" y2="154.75" style="fill: #eb9200; stroke: #9d9c98; stroke-miterlimit: 10; stroke-width: 3px;"/>
      <polygon points="236.57 154.5 223.02 161.53 223.02 147.98 236.57 154.5" style="fill: #9d9c98; stroke: #9d9c98; stroke-miterlimit: 10; stroke-width: 3px;"/>
    </g>
    <g>
      <line x1="359.15" y1="154.2" x2="403.57" y2="154.2" style="fill: #eb9200; stroke: #9d9c98; stroke-miterlimit: 10; stroke-width: 3px;"/>
      <polygon points="403.57 153.95 390.02 160.98 390.02 147.42 403.57 153.95" style="fill: #9d9c98; stroke: #9d9c98; stroke-miterlimit: 10; stroke-width: 3px;"/>
    </g>
    <g>
      <path d="M459.25,196.83l.21,49.81h0c-.23,4.5,3.36,8.28,7.87,8.28h42.52" style="fill: none; stroke: #9d9c98; stroke-miterlimit: 10; stroke-width: 3px;"/>
      <polygon points="523.4 254.66 509.84 261.69 509.84 248.13 523.4 254.66" style="fill: #9d9c98; stroke: #9d9c98; stroke-miterlimit: 10; stroke-width: 3px;"/>
    </g>
    <g>
      <path d="M459.45,110.17v-45.47h0c-.23-5.21,3.93-9.56,9.15-9.56h40.34" style="fill: none; stroke: #9d9c98; stroke-miterlimit: 10; stroke-width: 3px;"/>
      <polygon points="522.5 54.9 508.95 61.92 508.95 48.37 522.5 54.9" style="fill: #9d9c98; stroke: #9d9c98; stroke-miterlimit: 10; stroke-width: 3px;"/>
    </g>
    <g>
      <path d="M647.67,48.68h0c15.9,0,28.79,12.89,28.79,28.79v57.83c0,10.92,8.85,19.76,19.76,19.76h0" style="fill: none; stroke: #9d9c98; stroke-miterlimit: 10; stroke-width: 3px;"/>
      <polygon points="711.33 154.82 697.78 161.84 697.78 148.29 711.33 154.82" style="fill: #9d9c98; stroke: #9d9c98; stroke-miterlimit: 10; stroke-width: 3px;"/>
    </g>
    <g>
      <path d="M770.17,109.62v-45.47h0c-.23-5.21,3.93-9.56,9.15-9.56h37.87" style="fill: none; stroke: #9d9c98; stroke-miterlimit: 10; stroke-width: 3px;"/>
      <polygon points="823.96 54.34 810.41 61.37 810.41 47.81 823.96 54.34" style="fill: #9d9c98; stroke: #9d9c98; stroke-miterlimit: 10; stroke-width: 3px;"/>
    </g>
    <g>
      <path d="M770.15,199.13v45.47h0c.23,5.21-3.93,9.56-9.15,9.56h-96.71" style="fill: none; stroke: #9d9c98; stroke-miterlimit: 10; stroke-width: 3px;"/>
      <polygon points="650.74 254.41 664.3 247.38 664.3 260.94 650.74 254.41" style="fill: #9d9c98; stroke: #9d9c98; stroke-miterlimit: 10; stroke-width: 3px;"/>
    </g>
    <g>
      <path d="M586.47,265.47v45.47h0c.18,5.21-3.12,9.56-7.25,9.56H119.86" style="fill: none; stroke: #9d9c98; stroke-miterlimit: 10; stroke-width: 3px;"/>
      <polygon points="105.41 320.74 118.97 313.72 118.97 327.27 105.41 320.74" style="fill: #9d9c98; stroke: #9d9c98; stroke-miterlimit: 10; stroke-width: 3px;"/>
    </g>
  </g>
  <g id="Layer_4" data-name="Layer 4">
    <g>
      <rect x="8.05" y="104.25" width="101" height="101" rx="10" ry="10" style="fill: #2d5e77; stroke: #231f20; stroke-miterlimit: 10;"/>
      <text transform="translate(41.04 151.81)" style="fill: #fff; font-family: Montserrat-Medium, Montserrat; font-size: 13px; font-weight: 500;"><tspan x="0" y="0" style="letter-spacing: 0em;">F</tspan><tspan x="8.12" y="0" style="letter-spacing: -.01em;">r</tspan><tspan x="13.3" y="0">om </tspan><tspan x=".34" y="15.6" style="letter-spacing: 0em;">p</tspan><tspan x="9.15" y="15.6">a</tspan><tspan x="16.92" y="15.6" style="letter-spacing: .02em;">r</tspan><tspan x="22.44" y="15.6">t l</tspan></text>
    </g>
    <text transform="translate(7.88 308.04)" style="fill: #231f20; font-family: Montserrat-Medium, Montserrat; font-size: 22px; font-weight: 500;"><tspan x="0" y="0">B</tspan><tspan x="16.65" y="0" style="letter-spacing: 0em;">a</tspan><tspan x="29.88" y="0" style="letter-spacing: 0em;">c</tspan><tspan x="42.28" y="0">k </tspan><tspan x="61.75" y="0" style="letter-spacing: -.02em;">t</tspan><tspan x="70.47" y="0">o</tspan><tspan x="12.27" y="26.4" style="letter-spacing: -.02em;">P</tspan><tspan x="27.82" y="26.4">a</tspan><tspan x="40.97" y="26.4" style="letter-spacing: .02em;">r</tspan><tspan x="50.32" y="26.4">t I</tspan></text>
    <g>
      <rect x="120.79" y="108.45" width="89.9" height="103.74" rx="10" ry="10" style="fill: #939598; opacity: .51;"/>
      <rect x="114.54" y="105.26" width="91.61" height="101" rx="10" ry="10" style="fill: #9d9c98;"/>
      <text transform="translate(136.84 145.56)" style="fill: #fff; font-family: Montserrat-Medium, Montserrat; font-size: 13px; font-weight: 500;"><tspan x="0" y="0">CID* off</tspan><tspan x="7.1" y="15.6">GC at</tspan><tspan x="-6.9" y="31.2" style="letter-spacing: 0em;">m</tspan><tspan x="6.88" y="31.2">onth 6?</tspan></text>
    </g>
    <g>
      <rect x="414.69" y="108.36" width="99.11" height="103.74" rx="10" ry="10" style="fill: #939598; opacity: .51;"/>
      <rect x="407.8" y="105.18" width="101" height="101" rx="10" ry="10" style="fill: #9d9c98;"/>
      <text transform="translate(419.44 160.2)" style="fill: #fff; font-family: Montserrat-Medium, Montserrat; font-size: 13px; font-weight: 500;"><tspan x="0" y="0">Remissio</tspan><tspan x="59.68" y="0" style="letter-spacing: -.05em;">n</tspan><tspan x="67.92" y="0">?</tspan></text>
      <text transform="translate(494.81 155.87) scale(.58)" style="fill: #fff; font-family: Montserrat-Medium, Montserrat; font-size: 13px; font-weight: 500;"><tspan x="0" y="0">†</tspan></text>
    </g>
    <rect x="721.37" y="109.54" width="110.92" height="90.44" rx="10" ry="10" style="fill: #939598; opacity: .51;"/>
    <rect x="713.65" y="106.77" width="113.03" height="88.05" rx="10" ry="10" style="fill: #9d9c98;"/>
    <text transform="translate(740.31 150.88)" style="fill: #fff; font-family: Montserrat-Medium, Montserrat; font-size: 13px; font-weight: 500;"><tspan x="0" y="0">Drug-</tspan><tspan x="38.82" y="0" style="letter-spacing: .08em;">f</tspan><tspan x="44.45" y="0" style="letter-spacing: -.01em;">r</tspan><tspan x="49.62" y="0">ee</tspan><tspan x="-4.9" y="15.6" style="letter-spacing: -.01em;">r</tspan><tspan x=".27" y="15.6">emissio</tspan><tspan x="50.5" y="15.6" style="letter-spacing: -.05em;">n</tspan><tspan x="58.74" y="15.6">?</tspan></text>
    <text transform="translate(806.51 162.15) scale(.58)" style="fill: #fff; font-family: Montserrat-Medium, Montserrat; font-size: 13px; font-weight: 500;"><tspan x="0" y="0">†</tspan></text>
    <g>
      <rect x="243.02" y="117.3" width="127.72" height="87.46" rx="10" ry="10" style="fill: #4ca1a6; opacity: .51;"/>
      <rect x="239.22" y="112.52" width="127.72" height="87.46" rx="10" ry="10" style="fill: #4ca1a6;"/>
      <text transform="translate(252.24 149.05)" style="fill: #fff; font-size: 13px;"><tspan x="0" y="0" style="font-family: Montserrat-Bold, Montserrat; font-weight: 700;">Maintain</tspan><tspan x="59.9" y="0" xml:space="preserve" style="font-family: Montserrat-Medium, Montserrat; font-weight: 500;"> I</tspan><tspan x="67.43" y="0" style="font-family: Montserrat-Medium, Montserrat; font-weight: 500; letter-spacing: 0em;">L</tspan><tspan x="75.04" y="0" style="font-family: Montserrat-Medium, Montserrat; font-weight: 500; letter-spacing: -.02em;">-</tspan><tspan x="79.78" y="0" style="font-family: Montserrat-Medium, Montserrat; font-weight: 500;">1 or</tspan><tspan style="font-family: Montserrat-Medium, Montserrat; font-weight: 500;"><tspan x="-2.15" y="15.6">I</tspan><tspan x="1.88" y="15.6" style="letter-spacing: 0em;">L</tspan><tspan x="9.48" y="15.6" style="letter-spacing: 0em;">-</tspan><tspan x="14.55" y="15.6">6 inhibi</tspan><tspan x="63.52" y="15.6" style="letter-spacing: -.02em;">t</tspan><tspan x="68.67" y="15.6">or </tspan><tspan x="85.75" y="15.6" style="letter-spacing: 0em;">f</tspan><tspan x="90.24" y="15.6">or</tspan></tspan><tspan style="font-family: Montserrat-Medium, Montserrat; font-weight: 500;"><tspan x="13.01" y="31.2">3</tspan><tspan x="20.44" y="31.2" style="letter-spacing: 0em;">-</tspan><tspan x="25.51" y="31.2">6 </tspan><tspan x="37.03" y="31.2" style="letter-spacing: 0em;">m</tspan><tspan x="50.81" y="31.2">onths</tspan></tspan></text>
    </g>
    <g>
      <circle cx="459.25" cy="82.4" r="12.42" style="fill: #4ca1a6;"/>
      <text transform="translate(455.04 87.81)" style="fill: #fff; font-family: Montserrat-Medium, Montserrat; font-size: 13px; font-weight: 500;"><tspan x="0" y="0">Y</tspan></text>
    </g>
    <g>
      <circle cx="459.25" cy="234.51" r="12.42" style="fill: #eb9200;"/>
      <text transform="translate(453.97 239.68)" style="fill: #fff; font-family: Montserrat-Medium, Montserrat; font-size: 13px; font-weight: 500;"><tspan x="0" y="0">N</tspan></text>
    </g>
    <g>
      <circle cx="770.16" cy="82.4" r="12.42" style="fill: #4ca1a6;"/>
      <text transform="translate(765.96 87.81)" style="fill: #fff; font-family: Montserrat-Medium, Montserrat; font-size: 13px; font-weight: 500;"><tspan x="0" y="0">Y</tspan></text>
    </g>
    <g>
      <circle cx="770.16" cy="234.51" r="12.42" style="fill: #eb9200;"/>
      <text transform="translate(764.88 239.68)" style="fill: #fff; font-family: Montserrat-Medium, Montserrat; font-size: 13px; font-weight: 500;"><tspan x="0" y="0">N</tspan></text>
    </g>
    <g>
      <rect x="533.84" y="212.8" width="116.9" height="87.46" rx="10" ry="10" style="fill: #fbb040; opacity: .51;"/>
      <rect x="526.77" y="208.26" width="120.1" height="87.46" rx="10" ry="10" style="fill: #eb9200;"/>
      <text transform="translate(543.23 256.61)" style="fill: #fff; font-family: Montserrat-Medium, Montserrat; font-size: 13px; font-weight: 500;"><tspan x="0" y="0">B</tspan><tspan x="9.84" y="0" style="letter-spacing: 0em;">a</tspan><tspan x="17.65" y="0" style="letter-spacing: 0em;">c</tspan><tspan x="24.99" y="0">k </tspan><tspan x="36.49" y="0" style="letter-spacing: -.02em;">t</tspan><tspan x="41.64" y="0">o </tspan><tspan x="53.39" y="0" style="letter-spacing: 0em;">p</tspan><tspan x="62.19" y="0">a</tspan><tspan x="69.97" y="0" style="letter-spacing: .01em;">r</tspan><tspan x="75.49" y="0">t 1</tspan></text>
    </g>
    <g>
      <rect x="531.77" y="14.04" width="117.18" height="87.46" rx="10" ry="10" style="fill: #4ca1a6; opacity: .51;"/>
      <rect x="524.97" y="9.26" width="120.38" height="87.46" rx="10" ry="10" style="fill: #4ca1a6;"/>
      <text transform="translate(545.04 48.95)" style="fill: #fff; font-size: 13px;"><tspan x="0" y="0" style="font-family: Montserrat-Bold, Montserrat; font-weight: 700; letter-spacing: -.03em;">T</tspan><tspan x="7.68" y="0" style="font-family: Montserrat-Bold, Montserrat; font-weight: 700;">aper</tspan><tspan x="38.48" y="0" xml:space="preserve" style="font-family: Montserrat-Medium, Montserrat; font-weight: 500;"> I</tspan><tspan x="46.01" y="0" style="font-family: Montserrat-Medium, Montserrat; font-weight: 500; letter-spacing: 0em;">L</tspan><tspan x="53.61" y="0" style="font-family: Montserrat-Medium, Montserrat; font-weight: 500; letter-spacing: -.02em;">-</tspan><tspan x="58.36" y="0" style="font-family: Montserrat-Medium, Montserrat; font-weight: 500;">1 or</tspan><tspan style="font-family: Montserrat-Medium, Montserrat; font-weight: 500;"><tspan x="-2.08" y="15.6">I</tspan><tspan x="1.95" y="15.6" style="letter-spacing: 0em;">L</tspan><tspan x="9.56" y="15.6" style="letter-spacing: 0em;">-</tspan><tspan x="14.62" y="15.6">6 inhibi</tspan><tspan x="63.6" y="15.6" style="letter-spacing: -.02em;">t</tspan><tspan x="68.74" y="15.6">or</tspan></tspan></text>
    </g>
    <text transform="translate(858.07 17.89)" style="fill: #06245e; font-family: Montserrat-Bold, Montserrat; font-size: 15px; font-weight: 700;"><tspan x="0" y="0">U</tspan><tspan x="11.82" y="0" style="letter-spacing: .04em;">l</tspan><tspan x="16.92" y="0">tima</tspan><tspan x="52.95" y="0" style="letter-spacing: -.02em;">t</tspan><tspan x="59.22" y="0">e</tspan><tspan x="-24.79" y="18">t</tspan><tspan x="-18.26" y="18" style="letter-spacing: 0em;">r</tspan><tspan x="-11.93" y="18" style="letter-spacing: -.02em;">e</tspan><tspan x="-2.69" y="18">at</tspan><tspan x="13.09" y="18" style="letter-spacing: 0em;">m</tspan><tspan x="28.91" y="18">ent g</tspan><tspan x="70.01" y="18" style="letter-spacing: 0em;">o</tspan><tspan x="79.7" y="18">al </tspan><tspan x="-1.12" y="36" style="letter-spacing: 0em;">a</tspan><tspan x="8.22" y="36" style="letter-spacing: 0em;">c</tspan><tspan x="17.02" y="36">hi</tspan><tspan x="31.9" y="36" style="letter-spacing: 0em;">e</tspan><tspan x="41.22" y="36" style="letter-spacing: -.01em;">v</tspan><tspan x="49.96" y="36">ed</tspan></text>
    <text transform="translate(836.95 70.83)" style="fill: #06245e; font-family: Montserrat-Bold, Montserrat; font-size: 12px; font-weight: 700;"><tspan x="0" y="0" style="letter-spacing: -.02em;">P</tspan><tspan x="8.6" y="0">atients s</tspan><tspan x="62.06" y="0" style="letter-spacing: 0em;">h</tspan><tspan x="70.43" y="0">ould still </tspan><tspan x="27.32" y="14.4" style="letter-spacing: -.02em;">e</tspan><tspan x="34.71" y="14.4">xpe</tspan><tspan x="57.7" y="14.4" style="letter-spacing: 0em;">r</tspan><tspan x="62.82" y="14.4">ie</tspan><tspan x="74.01" y="14.4" style="letter-spacing: 0em;">n</tspan><tspan x="82.37" y="14.4" style="letter-spacing: 0em;">c</tspan><tspan x="89.38" y="14.4">e </tspan><tspan x="-3.99" y="28.8">p</tspan><tspan x="4.29" y="28.8" style="letter-spacing: 0em;">r</tspan><tspan x="9.35" y="28.8">og</tspan><tspan x="25.61" y="28.8" style="letter-spacing: 0em;">r</tspan><tspan x="30.68" y="28.8">essi</tspan><tspan x="54.6" y="28.8" style="letter-spacing: -.01em;">v</tspan><tspan x="61.6" y="28.8">ely s</tspan><tspan x="89.73" y="28.8" style="letter-spacing: 0em;">p</tspan><tspan x="97.9" y="28.8" style="letter-spacing: 0em;">a</tspan><tspan x="105.38" y="28.8" style="letter-spacing: 0em;">c</tspan><tspan x="112.38" y="28.8">ed </tspan><tspan x="29.18" y="43.2" style="letter-spacing: 0em;">f</tspan><tspan x="33.74" y="43.2">oll</tspan><tspan x="48.83" y="43.2" style="letter-spacing: -.01em;">o</tspan><tspan x="56.51" y="43.2" style="letter-spacing: -.02em;">w</tspan><tspan x="67.56" y="43.2">-ups</tspan></text>
    <g>
      <rect x="721.37" y="268.97" width="242.98" height="89.48" rx="8.6" ry="8.6" style="fill: #ffe780;"/>
      <text transform="translate(746.71 303)" style="fill: #06245e;"><tspan style="font-family: Montserrat-Bold, Montserrat; font-size: 13px; font-weight: 700;"><tspan x="0" y="0">F</tspan><tspan x="8.31" y="0" style="letter-spacing: 0em;">L</tspan><tspan x="16.24" y="0">ARE</tspan></tspan><tspan style="font-family: Montserrat-Regular, Montserrat; font-size: 12px;"><tspan x="0" y="14.4">Go </tspan><tspan x="19.94" y="14.4" style="letter-spacing: 0em;">b</tspan><tspan x="28.04" y="14.4" style="letter-spacing: 0em;">a</tspan><tspan x="35.15" y="14.4" style="letter-spacing: 0em;">c</tspan><tspan x="41.81" y="14.4">k </tspan><tspan x="52.16" y="14.4" style="letter-spacing: -.02em;">t</tspan><tspan x="56.81" y="14.4">o </tspan><tspan x="67.48" y="14.4" style="letter-spacing: 0em;">a</tspan><tspan x="74.58" y="14.4" style="letter-spacing: 0em;">c</tspan><tspan x="81.41" y="14.4">ti</tspan><tspan x="89.51" y="14.4" style="letter-spacing: -.02em;">v</tspan><tspan x="95.83" y="14.4">e stills</tspan><tspan x="132.52" y="14.4" style="letter-spacing: -.02em;">’</tspan><tspan x="134.87" y="14.4">s dis</tspan><tspan x="161.11" y="14.4" style="letter-spacing: -.02em;">e</tspan><tspan x="168.18" y="14.4">ase</tspan></tspan><tspan style="font-size: 12px;"><tspan x="0" y="28.8" style="font-family: Montserrat-Italic, Montserrat; font-style: italic;">a</tspan><tspan x="8.14" y="28.8" style="font-family: Montserrat-Italic, Montserrat; font-style: italic; letter-spacing: 0em;">n</tspan><tspan x="16.28" y="28.8" style="font-family: Montserrat-Italic, Montserrat; font-style: italic;">d/ or</tspan><tspan x="43.92" y="28.8" style="font-family: Montserrat-Regular, Montserrat;"> </tspan><tspan x="47.06" y="28.8" style="font-family: Montserrat-Regular, Montserrat; letter-spacing: 0em;">c</tspan><tspan x="53.71" y="28.8" style="font-family: Montserrat-Regular, Montserrat;">ont</tspan><tspan x="74.23" y="28.8" style="font-family: Montserrat-Regular, Montserrat; letter-spacing: 0em;">a</tspan><tspan x="81.34" y="28.8" style="font-family: Montserrat-Regular, Montserrat; letter-spacing: 0em;">c</tspan><tspan x="88.16" y="28.8" style="font-family: Montserrat-Regular, Montserrat;">t ERN</tspan></tspan></text>
      <text transform="translate(869.35 327.81) scale(.58)" style="fill: #06245e; font-family: Montserrat-Regular, Montserrat; font-size: 12px;"><tspan x="0" y="0">‡</tspan></text>
      <text transform="translate(873.18 331.8)" style="fill: #06245e; font-family: Montserrat-Regular, Montserrat; font-size: 12px;"><tspan x="0" y="0"> </tspan><tspan x="3.14" y="0" style="letter-spacing: 0em;">c</tspan><tspan x="9.79" y="0">ent</tspan><tspan x="30.04" y="0" style="letter-spacing: -.01em;">r</tspan><tspan x="34.69" y="0">e</tspan></text>
    </g>
  </g>
</svg>