<svg width="48" height="48" viewBox="0 0 48 48" fill="none" xmlns="http://www.w3.org/2000/svg">
<rect x="17" y="24" width="22" height="20" fill="#E80000"/>
<path d="M27.0048 3C27.0048 1.34062 25.6641 0 24.0048 0C22.3454 0 21.0048 1.34062 21.0048 3V22.5C21.0048 23.325 20.3298 24 19.5048 24C18.6798 24 18.0048 23.325 18.0048 22.5V6C18.0048 4.34062 16.6641 3 15.0048 3C13.3454 3 12.0048 4.34062 12.0048 6V31.5C12.0048 31.6406 12.0048 31.7906 12.0141 31.9313L6.34225 26.5312C4.84225 25.1063 2.47038 25.1625 1.036 26.6625C-0.398371 28.1625 -0.332746 30.5344 1.16725 31.9688L11.7048 42C15.7454 45.8531 21.1173 48 26.7048 48H28.5048C37.6173 48 45.0048 40.6125 45.0048 31.5V12C45.0048 10.3406 43.6641 9 42.0048 9C40.3454 9 39.0048 10.3406 39.0048 12V22.5C39.0048 23.325 38.3298 24 37.5048 24C36.6798 24 36.0048 23.325 36.0048 22.5V6C36.0048 4.34062 34.6641 3 33.0048 3C31.3454 3 30.0048 4.34062 30.0048 6V22.5C30.0048 23.325 29.3298 24 28.5048 24C27.6798 24 27.0048 23.325 27.0048 22.5V3ZM22.5048 31.5C22.5048 31.1022 22.6628 30.7206 22.9441 30.4393C23.2254 30.158 23.6069 30 24.0048 30C24.4026 30 24.7841 30.158 25.0654 30.4393C25.3467 30.7206 25.5048 31.1022 25.5048 31.5C25.5048 31.8978 25.3467 32.2794 25.0654 32.5607C24.7841 32.842 24.4026 33 24.0048 33C23.6069 33 23.2254 32.842 22.9441 32.5607C22.6628 32.2794 22.5048 31.8978 22.5048 31.5ZM30.0048 33C30.4026 33 30.7841 33.158 31.0654 33.4393C31.3467 33.7206 31.5048 34.1022 31.5048 34.5C31.5048 34.8978 31.3467 35.2794 31.0654 35.5607C30.7841 35.842 30.4026 36 30.0048 36C29.6069 36 29.2254 35.842 28.9441 35.5607C28.6628 35.2794 28.5048 34.8978 28.5048 34.5C28.5048 34.1022 28.6628 33.7206 28.9441 33.4393C29.2254 33.158 29.6069 33 30.0048 33ZM34.5048 31.5C34.5048 31.1022 34.6628 30.7206 34.9441 30.4393C35.2254 30.158 35.6069 30 36.0048 30C36.4026 30 36.7841 30.158 37.0654 30.4393C37.3467 30.7206 37.5048 31.1022 37.5048 31.5C37.5048 31.8978 37.3467 32.2794 37.0654 32.5607C36.7841 32.842 36.4026 33 36.0048 33C35.6069 33 35.2254 32.842 34.9441 32.5607C34.6628 32.2794 34.5048 31.8978 34.5048 31.5ZM33.0048 39C33.4026 39 33.7841 39.158 34.0654 39.4393C34.3467 39.7206 34.5048 40.1022 34.5048 40.5C34.5048 40.8978 34.3467 41.2794 34.0654 41.5607C33.7841 41.842 33.4026 42 33.0048 42C32.6069 42 32.2254 41.842 31.9441 41.5607C31.6628 41.2794 31.5048 40.8978 31.5048 40.5C31.5048 40.1022 31.6628 39.7206 31.9441 39.4393C32.2254 39.158 32.6069 39 33.0048 39ZM22.5048 40.5C22.5048 40.1022 22.6628 39.7206 22.9441 39.4393C23.2254 39.158 23.6069 39 24.0048 39C24.4026 39 24.7841 39.158 25.0654 39.4393C25.3467 39.7206 25.5048 40.1022 25.5048 40.5C25.5048 40.8978 25.3467 41.2794 25.0654 41.5607C24.7841 41.842 24.4026 42 24.0048 42C23.6069 42 23.2254 41.842 22.9441 41.5607C22.6628 41.2794 22.5048 40.8978 22.5048 40.5ZM18.0048 36C18.4026 36 18.7841 36.158 19.0654 36.4393C19.3467 36.7206 19.5048 37.1022 19.5048 37.5C19.5048 37.8978 19.3467 38.2794 19.0654 38.5607C18.7841 38.842 18.4026 39 18.0048 39C17.6069 39 17.2254 38.842 16.9441 38.5607C16.6628 38.2794 16.5048 37.8978 16.5048 37.5C16.5048 37.1022 16.6628 36.7206 16.9441 36.4393C17.2254 36.158 17.6069 36 18.0048 36Z" fill="white"/>
</svg>
