<svg width="214" height="213" viewBox="0 0 214 213" fill="none" xmlns="http://www.w3.org/2000/svg">
<ellipse cx="107" cy="106.5" rx="107" ry="106.5" fill="white"/>
<path d="M79.1236 50.168C78.3022 50.168 77.5836 50.0467 76.9676 49.804C76.3516 49.552 75.8709 49.202 75.5256 48.754C75.1802 48.2967 75.0076 47.7647 75.0076 47.158C75.0076 46.5513 75.1756 46.038 75.5116 45.618C75.8569 45.1887 76.3376 44.8667 76.9536 44.652C77.5696 44.428 78.2929 44.316 79.1236 44.316C79.9636 44.316 80.6916 44.428 81.3076 44.652C81.9329 44.8667 82.4136 45.1887 82.7496 45.618C83.0949 46.038 83.2676 46.5513 83.2676 47.158C83.2676 47.7647 83.0949 48.2967 82.7496 48.754C82.4042 49.202 81.9189 49.552 81.2936 49.804C80.6776 50.0467 79.9542 50.168 79.1236 50.168ZM79.1236 48.502C79.6929 48.502 80.1409 48.376 80.4676 48.124C80.8036 47.872 80.9716 47.5267 80.9716 47.088C80.9716 46.6493 80.8036 46.3087 80.4676 46.066C80.1409 45.814 79.6929 45.688 79.1236 45.688C78.5636 45.688 78.1202 45.814 77.7936 46.066C77.4669 46.3087 77.3036 46.6493 77.3036 47.088C77.3036 47.5267 77.4669 47.872 77.7936 48.124C78.1202 48.376 78.5636 48.502 79.1236 48.502ZM79.1236 45.464C78.3676 45.464 77.7049 45.3613 77.1356 45.156C76.5756 44.9507 76.1369 44.652 75.8196 44.26C75.5116 43.8587 75.3576 43.3827 75.3576 42.832C75.3576 42.2533 75.5162 41.7587 75.8336 41.348C76.1509 40.928 76.5942 40.606 77.1636 40.382C77.7329 40.1487 78.3862 40.032 79.1236 40.032C79.8796 40.032 80.5376 40.1487 81.0976 40.382C81.6669 40.606 82.1102 40.928 82.4276 41.348C82.7542 41.7587 82.9176 42.2533 82.9176 42.832C82.9176 43.3827 82.7589 43.8587 82.4416 44.26C82.1336 44.652 81.6949 44.9507 81.1256 45.156C80.5562 45.3613 79.8889 45.464 79.1236 45.464ZM79.1236 44.134C79.5996 44.134 79.9729 44.0267 80.2436 43.812C80.5236 43.5973 80.6636 43.3033 80.6636 42.93C80.6636 42.538 80.5189 42.2347 80.2296 42.02C79.9496 41.8053 79.5809 41.698 79.1236 41.698C78.6756 41.698 78.3116 41.8053 78.0316 42.02C77.7516 42.2347 77.6116 42.538 77.6116 42.93C77.6116 43.3033 77.7469 43.5973 78.0176 43.812C78.2882 44.0267 78.6569 44.134 79.1236 44.134ZM98.3786 42.356C98.9759 42.356 99.5033 42.4773 99.9606 42.72C100.427 42.9533 100.791 43.3173 101.053 43.812C101.323 44.2973 101.459 44.9227 101.459 45.688V50H99.2746V46.024C99.2746 45.4173 99.1486 44.9693 98.8966 44.68C98.6446 44.3907 98.2899 44.246 97.8326 44.246C97.5153 44.246 97.2306 44.3207 96.9786 44.47C96.7266 44.61 96.5306 44.8247 96.3906 45.114C96.2506 45.4033 96.1806 45.772 96.1806 46.22V50H93.9966V46.024C93.9966 45.4173 93.8706 44.9693 93.6186 44.68C93.3759 44.3907 93.0259 44.246 92.5686 44.246C92.2513 44.246 91.9666 44.3207 91.7146 44.47C91.4626 44.61 91.2666 44.8247 91.1266 45.114C90.9866 45.4033 90.9166 45.772 90.9166 46.22V50H88.7326V42.468H90.8186V44.526L90.4266 43.924C90.6879 43.4107 91.0566 43.0233 91.5326 42.762C92.0179 42.4913 92.5686 42.356 93.1846 42.356C93.8753 42.356 94.4773 42.5333 94.9906 42.888C95.5133 43.2333 95.8586 43.7653 96.0266 44.484L95.2566 44.274C95.5086 43.686 95.9099 43.2193 96.4606 42.874C97.0206 42.5287 97.6599 42.356 98.3786 42.356ZM107.055 50.112C106.252 50.112 105.538 49.944 104.913 49.608C104.297 49.272 103.807 48.8147 103.443 48.236C103.088 47.648 102.911 46.9807 102.911 46.234C102.911 45.478 103.088 44.8107 103.443 44.232C103.807 43.644 104.297 43.1867 104.913 42.86C105.538 42.524 106.252 42.356 107.055 42.356C107.848 42.356 108.558 42.524 109.183 42.86C109.808 43.1867 110.298 43.6393 110.653 44.218C111.008 44.7967 111.185 45.4687 111.185 46.234C111.185 46.9807 111.008 47.648 110.653 48.236C110.298 48.8147 109.808 49.272 109.183 49.608C108.558 49.944 107.848 50.112 107.055 50.112ZM107.055 48.32C107.419 48.32 107.746 48.236 108.035 48.068C108.324 47.9 108.553 47.662 108.721 47.354C108.889 47.0367 108.973 46.6633 108.973 46.234C108.973 45.7953 108.889 45.422 108.721 45.114C108.553 44.806 108.324 44.568 108.035 44.4C107.746 44.232 107.419 44.148 107.055 44.148C106.691 44.148 106.364 44.232 106.075 44.4C105.786 44.568 105.552 44.806 105.375 45.114C105.207 45.422 105.123 45.7953 105.123 46.234C105.123 46.6633 105.207 47.0367 105.375 47.354C105.552 47.662 105.786 47.9 106.075 48.068C106.364 48.236 106.691 48.32 107.055 48.32ZM117.223 42.356C117.82 42.356 118.352 42.4773 118.819 42.72C119.295 42.9533 119.668 43.3173 119.939 43.812C120.209 44.2973 120.345 44.9227 120.345 45.688V50H118.161V46.024C118.161 45.4173 118.025 44.9693 117.755 44.68C117.493 44.3907 117.12 44.246 116.635 44.246C116.289 44.246 115.977 44.3207 115.697 44.47C115.426 44.61 115.211 44.8293 115.053 45.128C114.903 45.4267 114.829 45.8093 114.829 46.276V50H112.645V42.468H114.731V44.554L114.339 43.924C114.609 43.42 114.997 43.0327 115.501 42.762C116.005 42.4913 116.579 42.356 117.223 42.356ZM125.404 50.112C124.518 50.112 123.827 49.888 123.332 49.44C122.838 48.9827 122.59 48.306 122.59 47.41V40.802H124.774V47.382C124.774 47.6993 124.858 47.9467 125.026 48.124C125.194 48.292 125.423 48.376 125.712 48.376C126.058 48.376 126.352 48.2827 126.594 48.096L127.182 49.636C126.958 49.7947 126.688 49.916 126.37 50C126.062 50.0747 125.74 50.112 125.404 50.112ZM121.428 44.316V42.636H126.65V44.316H121.428ZM132.986 42.356C133.584 42.356 134.116 42.4773 134.582 42.72C135.058 42.9533 135.432 43.3173 135.702 43.812C135.973 44.2973 136.108 44.9227 136.108 45.688V50H133.924V46.024C133.924 45.4173 133.789 44.9693 133.518 44.68C133.257 44.3907 132.884 44.246 132.398 44.246C132.053 44.246 131.74 44.3207 131.46 44.47C131.19 44.61 130.975 44.8293 130.816 45.128C130.667 45.4267 130.592 45.8093 130.592 46.276V50H128.408V39.612H130.592V44.554L130.102 43.924C130.373 43.42 130.76 43.0327 131.264 42.762C131.768 42.4913 132.342 42.356 132.986 42.356ZM140.622 50.112C139.978 50.112 139.357 50.0373 138.76 49.888C138.172 49.7293 137.705 49.5333 137.36 49.3L138.088 47.732C138.433 47.9467 138.839 48.124 139.306 48.264C139.782 48.3947 140.249 48.46 140.706 48.46C141.21 48.46 141.565 48.3993 141.77 48.278C141.985 48.1567 142.092 47.9887 142.092 47.774C142.092 47.5967 142.008 47.466 141.84 47.382C141.681 47.2887 141.467 47.2187 141.196 47.172C140.925 47.1253 140.627 47.0787 140.3 47.032C139.983 46.9853 139.661 46.9247 139.334 46.85C139.007 46.766 138.709 46.6447 138.438 46.486C138.167 46.3273 137.948 46.1127 137.78 45.842C137.621 45.5713 137.542 45.2213 137.542 44.792C137.542 44.316 137.677 43.896 137.948 43.532C138.228 43.168 138.629 42.8833 139.152 42.678C139.675 42.4633 140.3 42.356 141.028 42.356C141.541 42.356 142.064 42.412 142.596 42.524C143.128 42.636 143.571 42.7993 143.926 43.014L143.198 44.568C142.834 44.3533 142.465 44.2087 142.092 44.134C141.728 44.05 141.373 44.008 141.028 44.008C140.543 44.008 140.188 44.0733 139.964 44.204C139.74 44.3347 139.628 44.5027 139.628 44.708C139.628 44.8947 139.707 45.0347 139.866 45.128C140.034 45.2213 140.253 45.296 140.524 45.352C140.795 45.408 141.089 45.4593 141.406 45.506C141.733 45.5433 142.059 45.604 142.386 45.688C142.713 45.772 143.007 45.8933 143.268 46.052C143.539 46.2013 143.758 46.4113 143.926 46.682C144.094 46.9433 144.178 47.2887 144.178 47.718C144.178 48.1847 144.038 48.6 143.758 48.964C143.478 49.3187 143.072 49.5987 142.54 49.804C142.017 50.0093 141.378 50.112 140.622 50.112ZM82.2716 66V64.53L82.1316 64.208V61.576C82.1316 61.1093 81.9869 60.7453 81.6976 60.484C81.4176 60.2227 80.9836 60.092 80.3956 60.092C79.9942 60.092 79.5976 60.1573 79.2056 60.288C78.8229 60.4093 78.4962 60.5773 78.2256 60.792L77.4416 59.266C77.8522 58.9767 78.3469 58.7527 78.9256 58.594C79.5042 58.4353 80.0922 58.356 80.6896 58.356C81.8376 58.356 82.7289 58.6267 83.3636 59.168C83.9982 59.7093 84.3156 60.554 84.3156 61.702V66H82.2716ZM79.9756 66.112C79.3876 66.112 78.8836 66.014 78.4636 65.818C78.0436 65.6127 77.7216 65.3373 77.4976 64.992C77.2736 64.6467 77.1616 64.2593 77.1616 63.83C77.1616 63.382 77.2689 62.99 77.4836 62.654C77.7076 62.318 78.0576 62.0567 78.5336 61.87C79.0096 61.674 79.6302 61.576 80.3956 61.576H82.3976V62.85H80.6336C80.1202 62.85 79.7656 62.934 79.5696 63.102C79.3829 63.27 79.2896 63.48 79.2896 63.732C79.2896 64.012 79.3969 64.236 79.6116 64.404C79.8356 64.5627 80.1389 64.642 80.5216 64.642C80.8856 64.642 81.2122 64.558 81.5016 64.39C81.7909 64.2127 82.0009 63.956 82.1316 63.62L82.4676 64.628C82.3089 65.1133 82.0196 65.482 81.5996 65.734C81.1796 65.986 80.6382 66.112 79.9756 66.112ZM90.8702 58.356C91.4675 58.356 91.9995 58.4773 92.4662 58.72C92.9422 58.9533 93.3155 59.3173 93.5862 59.812C93.8568 60.2973 93.9922 60.9227 93.9922 61.688V66H91.8082V62.024C91.8082 61.4173 91.6728 60.9693 91.4022 60.68C91.1408 60.3907 90.7675 60.246 90.2822 60.246C89.9368 60.246 89.6242 60.3207 89.3442 60.47C89.0735 60.61 88.8588 60.8293 88.7002 61.128C88.5508 61.4267 88.4762 61.8093 88.4762 62.276V66H86.2922V58.468H88.3782V60.554L87.9862 59.924C88.2568 59.42 88.6442 59.0327 89.1482 58.762C89.6522 58.4913 90.2262 58.356 90.8702 58.356ZM99.2606 66.112C98.5512 66.112 97.9119 65.9533 97.3426 65.636C96.7732 65.3093 96.3206 64.8567 95.9846 64.278C95.6579 63.6993 95.4946 63.018 95.4946 62.234C95.4946 61.4407 95.6579 60.7547 95.9846 60.176C96.3206 59.5973 96.7732 59.1493 97.3426 58.832C97.9119 58.5147 98.5512 58.356 99.2606 58.356C99.8952 58.356 100.451 58.496 100.927 58.776C101.403 59.056 101.771 59.4807 102.033 60.05C102.294 60.6193 102.425 61.3473 102.425 62.234C102.425 63.1113 102.299 63.8393 102.047 64.418C101.795 64.9873 101.431 65.412 100.955 65.692C100.488 65.972 99.9232 66.112 99.2606 66.112ZM99.6386 64.32C99.9932 64.32 100.315 64.236 100.605 64.068C100.894 63.9 101.123 63.662 101.291 63.354C101.468 63.0367 101.557 62.6633 101.557 62.234C101.557 61.7953 101.468 61.422 101.291 61.114C101.123 60.806 100.894 60.568 100.605 60.4C100.315 60.232 99.9932 60.148 99.6386 60.148C99.2746 60.148 98.9479 60.232 98.6586 60.4C98.3692 60.568 98.1359 60.806 97.9586 61.114C97.7906 61.422 97.7066 61.7953 97.7066 62.234C97.7066 62.6633 97.7906 63.0367 97.9586 63.354C98.1359 63.662 98.3692 63.9 98.6586 64.068C98.9479 64.236 99.2746 64.32 99.6386 64.32ZM101.613 66V64.46L101.655 62.22L101.515 59.994V55.612H103.699V66H101.613ZM110.735 66V57.04L111.715 58.02H108.775V56.2H113.003V66H110.735ZM118.905 66.168C118.103 66.168 117.384 65.972 116.749 65.58C116.115 65.1787 115.615 64.6 115.251 63.844C114.887 63.088 114.705 62.1733 114.705 61.1C114.705 60.0267 114.887 59.112 115.251 58.356C115.615 57.6 116.115 57.026 116.749 56.634C117.384 56.2327 118.103 56.032 118.905 56.032C119.717 56.032 120.436 56.2327 121.061 56.634C121.696 57.026 122.195 57.6 122.559 58.356C122.923 59.112 123.105 60.0267 123.105 61.1C123.105 62.1733 122.923 63.088 122.559 63.844C122.195 64.6 121.696 65.1787 121.061 65.58C120.436 65.972 119.717 66.168 118.905 66.168ZM118.905 64.25C119.288 64.25 119.619 64.1427 119.899 63.928C120.189 63.7133 120.413 63.3727 120.571 62.906C120.739 62.4393 120.823 61.8373 120.823 61.1C120.823 60.3627 120.739 59.7607 120.571 59.294C120.413 58.8273 120.189 58.4867 119.899 58.272C119.619 58.0573 119.288 57.95 118.905 57.95C118.532 57.95 118.201 58.0573 117.911 58.272C117.631 58.4867 117.407 58.8273 117.239 59.294C117.081 59.7607 117.001 60.3627 117.001 61.1C117.001 61.8373 117.081 62.4393 117.239 62.906C117.407 63.3727 117.631 63.7133 117.911 63.928C118.201 64.1427 118.532 64.25 118.905 64.25ZM130.44 64.46L130.496 61.8L134.01 58.468H136.614L133.24 61.898L132.106 62.822L130.44 64.46ZM128.634 66V55.612H130.818V66H128.634ZM134.248 66L131.7 62.836L133.072 61.142L136.894 66H134.248ZM141.104 68.828C140.394 68.828 139.708 68.7393 139.046 68.562C138.392 68.394 137.846 68.1373 137.408 67.792L138.276 66.224C138.593 66.4853 138.994 66.6907 139.48 66.84C139.974 66.9987 140.46 67.078 140.936 67.078C141.71 67.078 142.27 66.9053 142.616 66.56C142.97 66.2147 143.148 65.7013 143.148 65.02V63.886L143.288 61.996L143.26 60.092V58.468H145.332V64.74C145.332 66.14 144.968 67.1713 144.24 67.834C143.512 68.4967 142.466 68.828 141.104 68.828ZM140.768 65.636C140.068 65.636 139.433 65.4867 138.864 65.188C138.304 64.88 137.851 64.4553 137.506 63.914C137.17 63.3633 137.002 62.724 137.002 61.996C137.002 61.2587 137.17 60.6193 137.506 60.078C137.851 59.5273 138.304 59.1027 138.864 58.804C139.433 58.5053 140.068 58.356 140.768 58.356C141.402 58.356 141.962 58.4867 142.448 58.748C142.933 59 143.311 59.3967 143.582 59.938C143.852 60.47 143.988 61.156 143.988 61.996C143.988 62.8267 143.852 63.5127 143.582 64.054C143.311 64.586 142.933 64.9827 142.448 65.244C141.962 65.5053 141.402 65.636 140.768 65.636ZM141.202 63.844C141.584 63.844 141.925 63.7693 142.224 63.62C142.522 63.4613 142.756 63.242 142.924 62.962C143.092 62.682 143.176 62.36 143.176 61.996C143.176 61.6227 143.092 61.3007 142.924 61.03C142.756 60.75 142.522 60.5353 142.224 60.386C141.925 60.2273 141.584 60.148 141.202 60.148C140.819 60.148 140.478 60.2273 140.18 60.386C139.881 60.5353 139.643 60.75 139.466 61.03C139.298 61.3007 139.214 61.6227 139.214 61.996C139.214 62.36 139.298 62.682 139.466 62.962C139.643 63.242 139.881 63.4613 140.18 63.62C140.478 63.7693 140.819 63.844 141.202 63.844Z" fill="#585854"/>
<g clip-path="url(#clip0_145_6)">
<path d="M88.25 105.812C88.25 95.0433 96.8689 86.3125 107.5 86.3125C118.131 86.3125 126.75 95.0433 126.75 105.812C126.75 116.582 118.131 125.312 107.5 125.312C96.8689 125.312 88.25 116.582 88.25 105.812ZM127.923 88.75C123.065 82.7934 115.726 79 107.5 79C99.2736 79 91.9346 82.7934 87.077 88.75H78.625C73.3162 88.75 69 93.1223 69 98.5V147.25C69 152.628 73.3162 157 78.625 157H136.375C141.684 157 146 152.628 146 147.25V98.5C146 93.1223 141.684 88.75 136.375 88.75H127.923Z" fill="#4AA1A6"/>
<path d="M112.613 109.712C112.613 108.098 111.997 106.635 110.974 105.538L116.027 93.6097C116.554 92.3757 115.982 90.9437 114.764 90.4105C113.546 89.8773 112.132 90.4562 111.606 91.6901L106.553 103.619C103.244 103.634 100.582 106.361 100.582 109.712C100.582 113.064 103.274 115.806 106.598 115.806C109.921 115.806 112.613 113.079 112.613 109.712Z" fill="#FCB713"/>
</g>
<ellipse cx="105" cy="176.5" rx="18" ry="1.5" fill="#D9D9D9" fill-opacity="0.5"/>
<defs>
<clipPath id="clip0_145_6">
<rect width="77" height="78" fill="white" transform="translate(69 79)"/>
</clipPath>
</defs>
</svg>
