<svg width="30" height="48" viewBox="0 0 30 48" fill="none" xmlns="http://www.w3.org/2000/svg">
<path d="M15 6C12.5156 6 10.5 8.01562 10.5 10.5V25.9219C10.5 27.5438 9.83437 28.9125 9.06562 29.9062C8.08125 31.1812 7.5 32.7656 7.5 34.5C7.5 38.6437 10.8562 42 15 42C19.1437 42 22.5 38.6437 22.5 34.5C22.5 32.7656 21.9188 31.1813 20.9344 29.9156C20.1656 28.9219 19.5 27.5531 19.5 25.9313V10.5C19.5 8.01562 17.4844 6 15 6ZM4.5 10.5C4.5 4.70625 9.19687 0 15 0C20.8031 0 25.5 4.69687 25.5 10.5V25.9125C25.5 25.9219 25.5094 25.9406 25.5188 25.9688C25.5375 26.025 25.5938 26.1187 25.6781 26.2312C27.45 28.5187 28.5 31.3875 28.5 34.4906C28.5 41.9437 22.4531 47.9906 15 47.9906C7.54688 47.9906 1.5 41.9531 1.5 34.5C1.5 31.3875 2.55 28.5187 4.32187 26.2406C4.40625 26.1281 4.4625 26.0344 4.48125 25.9781C4.49062 25.95 4.5 25.9312 4.5 25.9219V10.5ZM19.5 34.5C19.5 36.9844 17.4844 39 15 39C12.5156 39 10.5 36.9844 10.5 34.5C10.5 32.5406 11.7563 30.8719 13.5 30.2531V10.5C13.5 9.675 14.175 9 15 9C15.825 9 16.5 9.675 16.5 10.5V30.2531C18.2437 30.8719 19.5 32.5406 19.5 34.5Z" fill="white"/>
</svg>
