<svg width="46" height="46" viewBox="0 0 46 46" fill="none" xmlns="http://www.w3.org/2000/svg">
<g clip-path="url(#clip0_112_303)">
<path d="M25.875 43.125C25.875 44.7152 24.5902 46 23 46C21.4098 46 20.125 44.7152 20.125 43.125V42.0918C20.125 37.6086 14.7074 35.3625 11.5359 38.534L10.7992 39.2617C9.67617 40.3848 7.86133 40.3848 6.73828 39.2617C5.61523 38.1387 5.61523 36.3148 6.73828 35.1918L7.475 34.4551C10.6375 31.2926 8.39141 25.875 3.9082 25.875H2.875C1.28477 25.875 0 24.5902 0 23C0 21.4098 1.28477 20.125 2.875 20.125H3.9082C8.39141 20.125 10.6375 14.7074 7.46601 11.5359L6.73828 10.7992C5.61523 9.67617 5.61523 7.85234 6.73828 6.7293C7.86133 5.60625 9.68516 5.60625 10.8082 6.7293L11.5449 7.46601C14.7164 10.6375 20.134 8.39141 20.134 3.9082V2.875C20.134 1.28477 21.4187 0 23.009 0C24.5992 0 25.884 1.28477 25.884 2.875V3.9082C25.884 8.39141 31.3016 10.6375 34.473 7.46601L35.2098 6.7293C36.3328 5.60625 38.1566 5.60625 39.2797 6.7293C40.4027 7.85234 40.4027 9.67617 39.2797 10.7992L38.543 11.5359C35.3715 14.7074 37.6176 20.125 42.1008 20.125H43.134C44.7242 20.125 46.009 21.4098 46.009 23C46.009 24.5902 44.7242 25.875 43.134 25.875H42.1008C37.6176 25.875 35.3715 31.2926 38.543 34.4641L39.2797 35.2008C40.4027 36.3238 40.4027 38.1477 39.2797 39.2707C38.1566 40.3937 36.3328 40.3937 35.2098 39.2707L34.473 38.534C31.2926 35.3625 25.875 37.6086 25.875 42.0918V43.125ZM15.8125 25.875C15.8125 26.4413 15.924 27.0021 16.1408 27.5253C16.3575 28.0485 16.6751 28.5239 17.0756 28.9244C17.4761 29.3249 17.9515 29.6425 18.4747 29.8592C18.9979 30.076 19.5587 30.1875 20.125 30.1875C20.6913 30.1875 21.2521 30.076 21.7753 29.8592C22.2985 29.6425 22.7739 29.3249 23.1744 28.9244C23.5749 28.5239 23.8925 28.0485 24.1092 27.5253C24.326 27.0021 24.4375 26.4413 24.4375 25.875C24.4375 25.3087 24.326 24.7479 24.1092 24.2247C23.8925 23.7015 23.5749 23.2261 23.1744 22.8256C22.7739 22.4251 22.2985 22.1075 21.7753 21.8908C21.2521 21.674 20.6913 21.5625 20.125 21.5625C19.5587 21.5625 18.9979 21.674 18.4747 21.8908C17.9515 22.1075 17.4761 22.4251 17.0756 22.8256C16.6751 23.2261 16.3575 23.7015 16.1408 24.2247C15.924 24.7479 15.8125 25.3087 15.8125 25.875ZM27.3125 20.8438C27.8844 20.8438 28.4328 20.6166 28.8372 20.2122C29.2416 19.8078 29.4687 19.2594 29.4687 18.6875C29.4687 18.1156 29.2416 17.5672 28.8372 17.1628C28.4328 16.7584 27.8844 16.5312 27.3125 16.5312C26.7406 16.5312 26.1922 16.7584 25.7878 17.1628C25.3834 17.5672 25.1562 18.1156 25.1562 18.6875C25.1562 19.2594 25.3834 19.8078 25.7878 20.2122C26.1922 20.6166 26.7406 20.8438 27.3125 20.8438Z" fill="white"/>
</g>
<defs>
<clipPath id="clip0_112_303">
<rect width="46" height="46" fill="white" transform="matrix(1 0 0 -1 0 46)"/>
</clipPath>
</defs>
</svg>
